<svg width="16" height="13" viewBox="0 0 16 13" fill="none" xmlns="http://www.w3.org/2000/svg">
<path d="M14.7663 1.14929C14.3753 0.784935 13.9111 0.495898 13.4002 0.298699C12.8893 0.101499 12.3417 0 11.7887 0C11.2357 0 10.6881 0.101499 10.1772 0.298699C9.66629 0.495898 9.20211 0.784935 8.81116 1.14929L7.9998 1.90512L7.18843 1.14929C6.39874 0.413658 5.32768 0.000381306 4.21089 0.000381314C3.09409 0.000381322 2.02303 0.413658 1.23334 1.14929C0.443646 1.88493 8.32078e-09 2.88267 0 3.92302C-8.32078e-09 4.96336 0.443646 5.9611 1.23334 6.69674L2.0447 7.45256L7.9998 13L13.9549 7.45256L14.7663 6.69674C15.1574 6.33255 15.4677 5.90014 15.6794 5.42422C15.891 4.94829 16 4.43818 16 3.92302C16 3.40785 15.891 2.89774 15.6794 2.42182C15.4677 1.94589 15.1574 1.51348 14.7663 1.14929Z" fill="#EB4141"/>
</svg>
